<mxfile host="app.diagrams.net" agent="Mozilla/5.0 (Macintosh; Intel Mac OS X 10.15; rv:136.0) Gecko/20100101 Firefox/136.0" version="26.2.8">
  <diagram name="Page-1" id="hJuZCSZkMY1zZ9yzh8iO">
    <mxGraphModel dx="1579" dy="1260" grid="0" gridSize="10" guides="1" tooltips="1" connect="1" arrows="1" fold="1" page="0" pageScale="1" pageWidth="850" pageHeight="1100" math="0" shadow="0">
      <root>
        <mxCell id="0" />
        <mxCell id="1" parent="0" />
        <mxCell id="l4apO_FyRR7dK6Zw6bee-1" value="" style="rounded=0;whiteSpace=wrap;html=1;" parent="1" vertex="1">
          <mxGeometry x="83" y="-23" width="899" height="549" as="geometry" />
        </mxCell>
        <mxCell id="l4apO_FyRR7dK6Zw6bee-3" value="" style="shape=image;verticalLabelPosition=bottom;labelBackgroundColor=default;verticalAlign=top;aspect=fixed;imageAspect=0;image=https://static-00.iconduck.com/assets.00/kubernetes-icon-2048x1995-r1q3f8n7.png;" parent="1" vertex="1">
          <mxGeometry x="593" y="-9" width="79.03" height="77" as="geometry" />
        </mxCell>
        <mxCell id="l4apO_FyRR7dK6Zw6bee-7" value="" style="shape=image;verticalLabelPosition=bottom;labelBackgroundColor=default;verticalAlign=top;aspect=fixed;imageAspect=0;image=https://icon.icepanel.io/Technology/svg/Argo-CD.svg;" parent="1" vertex="1">
          <mxGeometry x="331" y="61" width="71" height="71" as="geometry" />
        </mxCell>
        <mxCell id="l4apO_FyRR7dK6Zw6bee-9" value="" style="shape=image;verticalLabelPosition=bottom;labelBackgroundColor=default;verticalAlign=top;aspect=fixed;imageAspect=0;image=https://www.svgrepo.com/show/361182/github-inverted.svg;" parent="1" vertex="1">
          <mxGeometry x="334.5" y="-145" width="64" height="64" as="geometry" />
        </mxCell>
        <mxCell id="l4apO_FyRR7dK6Zw6bee-10" value="" style="endArrow=classic;html=1;rounded=0;exitX=0.5;exitY=0;exitDx=0;exitDy=0;entryX=0.5;entryY=1;entryDx=0;entryDy=0;" parent="1" source="l4apO_FyRR7dK6Zw6bee-7" target="l4apO_FyRR7dK6Zw6bee-9" edge="1">
          <mxGeometry width="50" height="50" relative="1" as="geometry">
            <mxPoint x="366.5" y="55" as="sourcePoint" />
            <mxPoint x="386.5" y="149" as="targetPoint" />
          </mxGeometry>
        </mxCell>
        <mxCell id="l4apO_FyRR7dK6Zw6bee-12" value="kubehomelab.space" style="text;strokeColor=none;align=center;fillColor=none;html=1;verticalAlign=middle;whiteSpace=wrap;rounded=0;" parent="1" vertex="1">
          <mxGeometry x="306.25" y="165" width="120.5" height="30" as="geometry" />
        </mxCell>
        <mxCell id="l4apO_FyRR7dK6Zw6bee-13" value="" style="shape=image;verticalLabelPosition=bottom;labelBackgroundColor=default;verticalAlign=top;aspect=fixed;imageAspect=0;image=https://cdn-icons-png.flaticon.com/512/3037/3037366.png;" parent="1" vertex="1">
          <mxGeometry x="283" y="167.25" width="25.5" height="25.5" as="geometry" />
        </mxCell>
        <mxCell id="l4apO_FyRR7dK6Zw6bee-14" value="" style="endArrow=classic;html=1;rounded=0;exitX=1;exitY=0.5;exitDx=0;exitDy=0;entryX=1;entryY=0.5;entryDx=0;entryDy=0;" parent="1" source="l4apO_FyRR7dK6Zw6bee-7" target="l4apO_FyRR7dK6Zw6bee-12" edge="1">
          <mxGeometry width="50" height="50" relative="1" as="geometry">
            <mxPoint x="491" y="288" as="sourcePoint" />
            <mxPoint x="541" y="238" as="targetPoint" />
            <Array as="points">
              <mxPoint x="448" y="97" />
              <mxPoint x="448" y="180" />
            </Array>
          </mxGeometry>
        </mxCell>
        <mxCell id="l4apO_FyRR7dK6Zw6bee-16" value="" style="shape=image;verticalLabelPosition=bottom;labelBackgroundColor=default;verticalAlign=top;aspect=fixed;imageAspect=0;image=https://www.svgrepo.com/show/354256/rancher-icon.svg;" parent="1" vertex="1">
          <mxGeometry x="322.75" y="379" width="94" height="94" as="geometry" />
        </mxCell>
        <mxCell id="l4apO_FyRR7dK6Zw6bee-21" value="user1" style="text;html=1;align=center;verticalAlign=middle;resizable=0;points=[];autosize=1;strokeColor=none;fillColor=none;" parent="1" vertex="1">
          <mxGeometry x="283" y="480" width="48" height="26" as="geometry" />
        </mxCell>
        <mxCell id="l4apO_FyRR7dK6Zw6bee-22" value="user2" style="text;html=1;align=center;verticalAlign=middle;resizable=0;points=[];autosize=1;strokeColor=none;fillColor=none;" parent="1" vertex="1">
          <mxGeometry x="342.5" y="480" width="48" height="26" as="geometry" />
        </mxCell>
        <mxCell id="l4apO_FyRR7dK6Zw6bee-23" value="&lt;div&gt;...&lt;/div&gt;" style="text;html=1;align=center;verticalAlign=middle;resizable=0;points=[];autosize=1;strokeColor=none;fillColor=none;" parent="1" vertex="1">
          <mxGeometry x="409" y="480" width="28" height="26" as="geometry" />
        </mxCell>
        <mxCell id="l4apO_FyRR7dK6Zw6bee-24" value="" style="endArrow=classic;html=1;rounded=0;exitX=0.5;exitY=1;exitDx=0;exitDy=0;entryX=0.875;entryY=0.231;entryDx=0;entryDy=0;entryPerimeter=0;" parent="1" source="l4apO_FyRR7dK6Zw6bee-16" target="l4apO_FyRR7dK6Zw6bee-21" edge="1">
          <mxGeometry width="50" height="50" relative="1" as="geometry">
            <mxPoint x="565" y="556" as="sourcePoint" />
            <mxPoint x="615" y="506" as="targetPoint" />
          </mxGeometry>
        </mxCell>
        <mxCell id="l4apO_FyRR7dK6Zw6bee-25" value="" style="endArrow=classic;html=1;rounded=0;entryX=0.552;entryY=0.231;entryDx=0;entryDy=0;entryPerimeter=0;exitX=0.5;exitY=1;exitDx=0;exitDy=0;" parent="1" source="l4apO_FyRR7dK6Zw6bee-16" target="l4apO_FyRR7dK6Zw6bee-22" edge="1">
          <mxGeometry width="50" height="50" relative="1" as="geometry">
            <mxPoint x="369" y="456" as="sourcePoint" />
            <mxPoint x="335" y="496" as="targetPoint" />
          </mxGeometry>
        </mxCell>
        <mxCell id="l4apO_FyRR7dK6Zw6bee-26" value="" style="endArrow=classic;html=1;rounded=0;exitX=0.5;exitY=1;exitDx=0;exitDy=0;" parent="1" source="l4apO_FyRR7dK6Zw6bee-16" edge="1">
          <mxGeometry width="50" height="50" relative="1" as="geometry">
            <mxPoint x="390" y="474" as="sourcePoint" />
            <mxPoint x="412" y="485" as="targetPoint" />
          </mxGeometry>
        </mxCell>
        <mxCell id="l4apO_FyRR7dK6Zw6bee-27" value="" style="shape=image;verticalLabelPosition=bottom;labelBackgroundColor=default;verticalAlign=top;aspect=fixed;imageAspect=0;image=https://upload.wikimedia.org/wikipedia/commons/2/29/Keycloak_Logo.png;" parent="1" vertex="1">
          <mxGeometry x="512" y="329" width="89" height="89" as="geometry" />
        </mxCell>
        <mxCell id="l4apO_FyRR7dK6Zw6bee-28" value="" style="endArrow=classic;html=1;rounded=0;exitX=1;exitY=0.5;exitDx=0;exitDy=0;entryX=0;entryY=0.5;entryDx=0;entryDy=0;" parent="1" source="l4apO_FyRR7dK6Zw6bee-16" target="l4apO_FyRR7dK6Zw6bee-27" edge="1">
          <mxGeometry width="50" height="50" relative="1" as="geometry">
            <mxPoint x="615" y="369" as="sourcePoint" />
            <mxPoint x="665" y="319" as="targetPoint" />
          </mxGeometry>
        </mxCell>
        <mxCell id="l4apO_FyRR7dK6Zw6bee-33" value="" style="shape=image;verticalLabelPosition=bottom;labelBackgroundColor=default;verticalAlign=top;aspect=fixed;imageAspect=0;image=https://ellin.com/wp-content/uploads/2024/kyverno.png;" parent="1" vertex="1">
          <mxGeometry x="843" y="187" width="122.8" height="96" as="geometry" />
        </mxCell>
        <mxCell id="l4apO_FyRR7dK6Zw6bee-34" value="" style="shape=image;verticalLabelPosition=bottom;labelBackgroundColor=default;verticalAlign=top;aspect=fixed;imageAspect=0;image=https://images.icon-icons.com/2699/PNG/512/grafana_logo_icon_171049.png;" parent="1" vertex="1">
          <mxGeometry x="687" y="95" width="184" height="92" as="geometry" />
        </mxCell>
        <mxCell id="l4apO_FyRR7dK6Zw6bee-35" value="" style="shape=image;verticalLabelPosition=bottom;labelBackgroundColor=default;verticalAlign=top;aspect=fixed;imageAspect=0;image=https://static-00.iconduck.com/assets.00/prometheus-icon-2047x2048-b3aicxlu.png;" parent="1" vertex="1">
          <mxGeometry x="697" y="267.5" width="91.92" height="92" as="geometry" />
        </mxCell>
        <mxCell id="l4apO_FyRR7dK6Zw6bee-36" value="" style="endArrow=classic;html=1;rounded=0;exitX=0.5;exitY=0;exitDx=0;exitDy=0;entryX=0.527;entryY=0.804;entryDx=0;entryDy=0;entryPerimeter=0;" parent="1" source="l4apO_FyRR7dK6Zw6bee-35" target="l4apO_FyRR7dK6Zw6bee-34" edge="1">
          <mxGeometry width="50" height="50" relative="1" as="geometry">
            <mxPoint x="757" y="398" as="sourcePoint" />
            <mxPoint x="807" y="348" as="targetPoint" />
          </mxGeometry>
        </mxCell>
        <mxCell id="l4apO_FyRR7dK6Zw6bee-37" value="" style="endArrow=classic;html=1;rounded=0;exitX=0.5;exitY=0;exitDx=0;exitDy=0;" parent="1" source="l4apO_FyRR7dK6Zw6bee-33" edge="1">
          <mxGeometry width="50" height="50" relative="1" as="geometry">
            <mxPoint x="757" y="398" as="sourcePoint" />
            <mxPoint x="784" y="173" as="targetPoint" />
          </mxGeometry>
        </mxCell>
        <mxCell id="l4apO_FyRR7dK6Zw6bee-38" value="" style="shape=image;verticalLabelPosition=bottom;labelBackgroundColor=default;verticalAlign=top;aspect=fixed;imageAspect=0;image=https://cdn.mikrotik.com/web-assets/rb_images/1468_hi_res.png;rotation=0;" parent="1" vertex="1">
          <mxGeometry x="450.43000000000006" y="834" width="164.14" height="205.82" as="geometry" />
        </mxCell>
        <mxCell id="l4apO_FyRR7dK6Zw6bee-39" value="" style="shape=image;verticalLabelPosition=bottom;labelBackgroundColor=default;verticalAlign=top;aspect=fixed;imageAspect=0;image=https://static-00.iconduck.com/assets.00/raspberry-pi-icon-2048x2048-p0y4r07x.png;" parent="1" vertex="1">
          <mxGeometry x="180.57" y="593" width="172.92" height="172.92" as="geometry" />
        </mxCell>
        <mxCell id="l4apO_FyRR7dK6Zw6bee-40" value="" style="shape=image;verticalLabelPosition=bottom;labelBackgroundColor=default;verticalAlign=top;aspect=fixed;imageAspect=0;image=https://static-00.iconduck.com/assets.00/raspberry-pi-icon-2048x2048-p0y4r07x.png;" parent="1" vertex="1">
          <mxGeometry x="357.57" y="593" width="172.92" height="172.92" as="geometry" />
        </mxCell>
        <mxCell id="l4apO_FyRR7dK6Zw6bee-41" value="" style="shape=image;verticalLabelPosition=bottom;labelBackgroundColor=default;verticalAlign=top;aspect=fixed;imageAspect=0;image=https://static-00.iconduck.com/assets.00/raspberry-pi-icon-2048x2048-p0y4r07x.png;" parent="1" vertex="1">
          <mxGeometry x="530.4900000000001" y="593" width="172.92" height="172.92" as="geometry" />
        </mxCell>
        <mxCell id="l4apO_FyRR7dK6Zw6bee-42" value="" style="shape=image;verticalLabelPosition=bottom;labelBackgroundColor=default;verticalAlign=top;aspect=fixed;imageAspect=0;image=https://static-00.iconduck.com/assets.00/raspberry-pi-icon-2048x2048-p0y4r07x.png;" parent="1" vertex="1">
          <mxGeometry x="711.5100000000001" y="593" width="172.92" height="172.92" as="geometry" />
        </mxCell>
        <mxCell id="l4apO_FyRR7dK6Zw6bee-43" value="" style="endArrow=classic;html=1;rounded=0;exitX=0.5;exitY=0;exitDx=0;exitDy=0;entryX=0.5;entryY=1;entryDx=0;entryDy=0;" parent="1" source="l4apO_FyRR7dK6Zw6bee-39" target="l4apO_FyRR7dK6Zw6bee-1" edge="1">
          <mxGeometry width="50" height="50" relative="1" as="geometry">
            <mxPoint x="590" y="610" as="sourcePoint" />
            <mxPoint x="640" y="560" as="targetPoint" />
          </mxGeometry>
        </mxCell>
        <mxCell id="l4apO_FyRR7dK6Zw6bee-44" value="" style="endArrow=classic;html=1;rounded=0;exitX=0.5;exitY=0;exitDx=0;exitDy=0;entryX=0.5;entryY=1;entryDx=0;entryDy=0;" parent="1" source="l4apO_FyRR7dK6Zw6bee-40" target="l4apO_FyRR7dK6Zw6bee-1" edge="1">
          <mxGeometry width="50" height="50" relative="1" as="geometry">
            <mxPoint x="590" y="610" as="sourcePoint" />
            <mxPoint x="644" y="528" as="targetPoint" />
          </mxGeometry>
        </mxCell>
        <mxCell id="l4apO_FyRR7dK6Zw6bee-45" value="" style="endArrow=classic;html=1;rounded=0;exitX=0.5;exitY=0;exitDx=0;exitDy=0;entryX=0.5;entryY=1;entryDx=0;entryDy=0;" parent="1" source="l4apO_FyRR7dK6Zw6bee-41" target="l4apO_FyRR7dK6Zw6bee-1" edge="1">
          <mxGeometry width="50" height="50" relative="1" as="geometry">
            <mxPoint x="590" y="610" as="sourcePoint" />
            <mxPoint x="643" y="529" as="targetPoint" />
          </mxGeometry>
        </mxCell>
        <mxCell id="l4apO_FyRR7dK6Zw6bee-47" value="" style="endArrow=classic;html=1;rounded=0;exitX=0.5;exitY=0;exitDx=0;exitDy=0;entryX=0.5;entryY=1;entryDx=0;entryDy=0;" parent="1" source="l4apO_FyRR7dK6Zw6bee-42" target="l4apO_FyRR7dK6Zw6bee-1" edge="1">
          <mxGeometry width="50" height="50" relative="1" as="geometry">
            <mxPoint x="641" y="641" as="sourcePoint" />
            <mxPoint x="691" y="591" as="targetPoint" />
          </mxGeometry>
        </mxCell>
        <mxCell id="l4apO_FyRR7dK6Zw6bee-48" value="" style="endArrow=classic;html=1;rounded=0;exitX=0.5;exitY=0;exitDx=0;exitDy=0;entryX=0.5;entryY=1;entryDx=0;entryDy=0;" parent="1" source="l4apO_FyRR7dK6Zw6bee-38" target="l4apO_FyRR7dK6Zw6bee-39" edge="1">
          <mxGeometry width="50" height="50" relative="1" as="geometry">
            <mxPoint x="625.98" y="802" as="sourcePoint" />
            <mxPoint x="675.98" y="752" as="targetPoint" />
          </mxGeometry>
        </mxCell>
        <mxCell id="l4apO_FyRR7dK6Zw6bee-49" value="" style="endArrow=classic;html=1;rounded=0;exitX=0.5;exitY=0;exitDx=0;exitDy=0;entryX=0.5;entryY=1;entryDx=0;entryDy=0;" parent="1" source="l4apO_FyRR7dK6Zw6bee-38" target="l4apO_FyRR7dK6Zw6bee-42" edge="1">
          <mxGeometry width="50" height="50" relative="1" as="geometry">
            <mxPoint x="625.98" y="802" as="sourcePoint" />
            <mxPoint x="675.98" y="752" as="targetPoint" />
          </mxGeometry>
        </mxCell>
        <mxCell id="l4apO_FyRR7dK6Zw6bee-50" value="" style="endArrow=classic;html=1;rounded=0;exitX=0.5;exitY=0;exitDx=0;exitDy=0;entryX=0.5;entryY=1;entryDx=0;entryDy=0;" parent="1" source="l4apO_FyRR7dK6Zw6bee-38" target="l4apO_FyRR7dK6Zw6bee-40" edge="1">
          <mxGeometry width="50" height="50" relative="1" as="geometry">
            <mxPoint x="529.98" y="828" as="sourcePoint" />
            <mxPoint x="579.98" y="778" as="targetPoint" />
          </mxGeometry>
        </mxCell>
        <mxCell id="l4apO_FyRR7dK6Zw6bee-51" value="" style="endArrow=classic;html=1;rounded=0;exitX=0.5;exitY=0;exitDx=0;exitDy=0;entryX=0.5;entryY=1;entryDx=0;entryDy=0;" parent="1" source="l4apO_FyRR7dK6Zw6bee-38" target="l4apO_FyRR7dK6Zw6bee-41" edge="1">
          <mxGeometry width="50" height="50" relative="1" as="geometry">
            <mxPoint x="529.98" y="828" as="sourcePoint" />
            <mxPoint x="579.98" y="778" as="targetPoint" />
          </mxGeometry>
        </mxCell>
        <mxCell id="l4apO_FyRR7dK6Zw6bee-52" value="" style="shape=image;verticalLabelPosition=bottom;labelBackgroundColor=default;verticalAlign=top;aspect=fixed;imageAspect=0;image=https://static.thenounproject.com/png/1642971-200.png;" parent="1" vertex="1">
          <mxGeometry x="432.49571428571426" y="1103.0028571428575" width="200" height="200" as="geometry" />
        </mxCell>
        <mxCell id="l4apO_FyRR7dK6Zw6bee-53" value="" style="endArrow=classic;html=1;rounded=0;exitX=0.5;exitY=0;exitDx=0;exitDy=0;entryX=0.5;entryY=1;entryDx=0;entryDy=0;" parent="1" source="l4apO_FyRR7dK6Zw6bee-52" target="l4apO_FyRR7dK6Zw6bee-38" edge="1">
          <mxGeometry width="50" height="50" relative="1" as="geometry">
            <mxPoint x="554.98" y="1253" as="sourcePoint" />
            <mxPoint x="604.98" y="1203" as="targetPoint" />
          </mxGeometry>
        </mxCell>
        <mxCell id="ypDoyG1YeloCChP4dBAC-3" value="Client" style="whiteSpace=wrap;html=1;" vertex="1" parent="1">
          <mxGeometry x="-56" y="167.9" width="79.2" height="37.2" as="geometry" />
        </mxCell>
        <mxCell id="ypDoyG1YeloCChP4dBAC-10" value="" style="shape=image;verticalLabelPosition=bottom;labelBackgroundColor=default;verticalAlign=top;aspect=fixed;imageAspect=0;image=data:image/png,iVBORw0KGgoAAAANSUhEUgAAAQAAAAEACAYAAABccqhmAAAasklEQVR4nOzde7xOZd4/8M/etu18LqTk7HEWJS2HFEaRJJWpqTRTjbI6SnJ8GMYhpKTHMplqZnQclVIiCklZoYiQkXKW83Gz7c3e9+91r32ZH9q4916H7zp83v/0PF72uj5zu9dnr8N1rZUSi8VgR1JSkq2fJ48ZWgqABwA8BKCe+tO1AF4G8Cp086RwQsoD2/svCyBCDK09gBcANDjH31gNoDd083OPk1E+sQDowgytBoDxAG5J8CdmAOgD3fzZ5WRkEwuAzs3QSgAYZP1WB1Lz+NOZ6mhhJHTziEsJySYWAP2WoSUD6AHgWQAVbG5tF4D+AKZCN7MdSkgOYQHQmQytBYAXAVzl8Ja/BfAEdHOxw9slG1gAlMPQLgMwFsBdLo/0FoB+0M1tLo9DCWABRJ2hFQHQ19opgaIejXoMwBgA46Cb6R6NSblgAUSZof1e7YhVhBJsVkcD/xYaP/JYAFFkaFcAmAigtXQUZRGAx6Gb30sHiRoWQJQYWnkAIwA8GP/opeOcJf5FegXAYOjmbukwUcECiAJDSwXwGIAhAEpKx7mAwwCGA3gJupkpHSbsWABhZ2g3qQk5taSj5NFPalrxJ9JBwowFEFaGVhfA8wBulI5i06cAnoJu/igdJIxYAGFjaGUADAXwCIAU6TgOOQlgEoBh0M0D0mHChAUQFoZWAMCfAfwVwEXScVyyF8D/Avg7dDNLOkwYsADCwNCuU7f1GkpH8cgP6rbhF9JBgo4FEGSGVg3AcwC6SUcRMh3A09DNjdJBgooFEESGVhzAQOviGFBIOo6wDHWxcxR0M006TNCwAILE0OIf1r0ARgOoJB3HZ3YAGADgdeimvS9lhLAAgsLQrgEwAUBz6Sg+twTAk9DNb6SDBAELwO8M7VL1G/9e6SgB87p1RKCb26WD+BkLwK8MrbA6x4+f6xeTjhNQR61rA8Dz0M3j0mH8iAXgR4Z2m7q6X1U6SkhsUncL3pcO4jcsAD8xtEbqfn4b6SghtVDNH1glHcQvWAB+YGgXqxVwPQEkS8cJuWwAU6yVkbq5RzqMNBaAJEMrqObsDwVQWjpOxBy01hYAk6CbJ6TDSGEBSDG0jmoCSx3pKBG3Tq02nC0dRAILwGuGVlutz+8kHYXOMEs9f2C9dBAvsQC8Ymil1BN5HgNQUDoO5eqE9SQiYDh085B0GC+wANyW85adB9Wz+C6WjkMJ2WM9mxB4JexvM2IBuMnQrlW39RpLR6F8WaluG34pHcQtLAA3GFpV9bz97tJRyBHT1PsLNkkHcRoLwEmGVky9YacvgMLScchRx603GcWLXTePSodxCgvACTnLdO9S79a7VDoOuWo7gGcAvB2GZccsALsMrZl6m64mHYU8Zaq3HS+TDmIHCyC/DK2ien9+Dx++ZYe8Ef/yTwXQH7q5UzpMfrAA8srQClkTRoBBAIpLxyFfSAMw0prgpZsZ0mHyggWQF4bWFcB4ANWlo5Av/QKgD3TzQ+kgiWIBJMLQGqrpu+2ko1AgzFPTin+QDnIhLIDzMbRyapnuQwAKSMehQMkC8LJadrxPOsy5sAByY2gpAHqp5aJlpONQoB1Qy70nQzdPSoc5GwvgbIbWQR3u15OOQqGyVp0WzJUOcjoWwCmGVlOtz79ZOgqF2sfq+QMbpIOABWDt+CXVLb3eXKZLHjmhjjJHQjcPSwaJbgHkLNP9o3rmfnmZEBRxu9XbjP4ptew4mgVgaK3U9N2m3g9O9BvL1bTir7weOFoFYGiV1YKdO70blChh71gLjXRzq1cDRqMADK2IWqb7DIAi7g9IlG/p6pfUGOhmutuDhbsAcpbp/l59oJXdG4jIcVvVL6x/u7nsOLwFYGhN1eO4WrozAJEnvlaPJVvuxsbDVwCGVkGtzLqfy3QpJOI72WvW7Wrd3OXohkNTAIaWal1JBf4XQAlnNkrkK0cA/NW6g6WbmU5sMBwFYGg3q1l8Ne1vjMj3NqjZhB/b3VCwC8DQ6qkZVR1shSAKprlqfcHa/G4gmAVgaGXUSj2dy3Qp4rLie4S14lA3D+T1h4NVADnLdHuq86CytgYmCpf96vrXlLwsOw5OARhaWzV9t4GtAYnCbbWaVjw/kb/s/wIwtOrqOXxdbQ1EFC0fqucT/nK+v+TfAjC0EgAGWlc7gVRbgxBFU6a6OzYKunkkt7/gvwLImb57n1qmW9HWxokobqdadvyvs6cV+6sADE1T5/nNbG2UiHKzTF0fME/9gT8KwNAKqEOVx21tjIgSMVFNJMqyu/8mOxRoLHd+Is88rvY52+wfAUxuURzAYS7cIfJUfMctGeu1OM3ORlIcCFIxCjv/RYVLo0Plq3F1+XqoU6YKqpW4BIVTCqFwgVSknUjH4cyj2HZ0N9Yf3IJ1Bzdj0Y6V1n/JeY3L1UTHyzVcU6EBapeujFKpxVEgORmHMtKw/tBWLNm1Bp9sXowVe9dLR3VTktr3bD2d2IkjgIYAVtnaiE8lJyWja7Vr8XD9rmh36VXW/58Xu9L3W1/EN9fPwRc7ViA7JvLcyFCIf/a/r9kO/Zvci0blElszFi+AZ5e/jnd/no8YXHsmh6RGsV6Lbb2+zIkCaARgpa2N+FCbSk3wYqve1m8bJ2xL243xK9/GKz9+ZB0xUOIalquBV64bYB195cfCHSvQY95wbElzdCm+HzSO9Vps65evUxcBQyMluQCeb/E4vrhlkmM7f9xlxcvjhZZPYNM90/FU47tQMNmJs6/wu6vW77D0tlfzvfNDlfn33aei9SWNHc0WBiyA0xRNKYyPOo5F78buPXS4XOFSGN/iMay4419oevH/uDZOGPSsdwveaj/Mus5iV5lCJTCn8wSWwFlYAEqBpGRM6zDCurjkhfplq+Gbbn/Hw/Vv9WS8oOlcpSUmX9vX0W0WSSmEGR3H4vLiFRzdbpCxAJQhV92Pm6q08HTM+GlA/Es+oeWTSAr/jZSEVSp2Eaa2G5Lni66JiB8JxLfNzzsHC0BdZBp05R/Fxn+iUXdMuraP2Ph+80LLJ6wd1S1tKjVB95rtXNt+kLAAAPy1WU/rFEBSr/rdREvILxqXq4nuNdzfOQfzs7ZEvgCqlKiILtVaScewjLi6J26vcb10DFGPNrzdk3EalK2OKy+u48lYfhb5Ari1WhtfnQ9ObTsksncH4kdhd9Ro69l4N1flO2ciXwB+uy1UJKUQZnZ6zroQFjXNyte1pvV6pXn5+p6N5VeRL4C6ZapKR/iNS4qWs+YjFE0pLB3FU4lO8XVKzVKXeTqeH0W+AMoWLikdIVfx89N/tB3kq9MTt1Up4e0DpNy80xAUkS8AJ2aZuaV7jXYY2ux+6RieKZbi7ZvfU5L5SorIF4DfDb3qAdxZs710DAopFkAA/KPtYFuLYYjOhQUQAPHTlBkdx1grComcxAIIiIoRvTNA7mIBBEiTi2pzIQs5igUQMLdVvw4jmveUjkEhwQIIoIFN78PdtW6QjkEhwAIIqFevH4hrKnAqK9nDAgioQgUK4sOOY/h0G7KFBRBgFYqUtR5xVaygtzPoKDxYAAF3xUW18Fb7v7jy+CwKP35rQqBL1dYY1fxh6RgUQCyAkOjX5B7cW/tG6RgUMCyAEHnl+gFoUbGhdAwKEBZAiKQmF8QHNz6LqiUukY5CAcECCJnyRcrg407jUKJgUekoFAAsgBBqULY63vrdMPFHnZP/8RsSUp2rtMToa3pJxyCfYwGEWN8r7sYf69wkHYN8jAUQclPa9MO1la6QjkE+xQIIuYLJKZh+w2hUK1lJOgr5EAsgAsoVLoWZncahZGox6SjkMyyAiKhXphre/t1w3hmgM/DbECGdLtcwTntUOgb5CAsgYno3vhM9690iHYN8ggUQQf/Xug+uq9RUOgb5AAsgggomp+D9G0ehRslLpaOQMBaAx346tBUPLRyD9JMZojnKFiqJmTc95+nruMl/WAAem73lG0xZOwM95g+XjoI6patgWocRvDMQYfyX91gsFrP++97PCzBk6d+l46BD5asxodWT0jFICAtA0Ijv/ol3NnwuHQOPNrgdD9e/VToGCWABCIohhvsXjMTS3Wulo+ClVk+h7aVXSscgj7EAhKWfzMAts/tha9ou0RwpyQXw3g2jULv05aI5yFssAB/YeWyfVQLHTh4XzVGmUAl83HGs9V+KBhaAT6zYux73fD5MOoZ1BPBuh5HWEQGFHwvARz7YuBCDlrwsHQPtLrsKE1v1lo5BHmAB+Mzo5VPxxvo50jHQq3436A26Sccgl7EAfCaGGB78YhTMXaulo2Biq6eseQIUXiwAH8rIOoFbZ/fHFuE7AwWSkq2ZgnVKVxHNQe5hAfjUrvT96DKrL46eSBfNUSq1uPWegbKFSormIHewAHxs5b4NuHveX5AdyxbNUbPUZdYcgYLJKaI5yHksAJ+bsXERBiz5m3QMXH9pU7zU+inpGOQwFkAAjF3xBv71n1nSMfBQva54olF36RjkIBZAQPT8Ygy+3rlKOgaeb/E4Ol6uSccgh7AAAiIz+wS6fToAm4/sFM2RnJSMd343HHXLVBXNQc5gAQTI7vQD6DzraRw5cUw0R8nUYpjZ6TnrfQMUbCyAgFm9/xfc9dkQ8TsD1UtWwvs3jEJqckHRHGQPCyCAPtm8GM+Yk6RjoE2lJpjcpq90DLKBBRBQ41e+jdfWzZSOgfvrdEafxndJx6B8YgEEWK+F47Do15XSMTBWewQ3VWkhHYPygQUQYJnZJ3Drp/3xy+EdojmSk5Kt9w7WL1tNNAflHQsg4PYdP2TdGTiceVQ0R4mCRa07A+WLlBHNQXnDAgiBHw9swp0+uDNQtcQlmH7jaN4ZCBAWQEjM3mKiz+KXpGOgZcVGmHJdP+kYlCAWQIhMWPVv661D0u77n054psk90jEoASyAkHl00Xgs2L5cOgZGN38YN1dtJR2DLoAFEDInsk/i9jkDseHQNtEc1p2B9sPQuFxN0Rx0fiyAENqfcRg3z+qLQ5lpojmKFSyCjzqNQ4UiZUVz0LmxAEJq3cHN6D53sPidgcuLV8AHHZ9FoQK8M+BHLIAQm7t1KR7/6gXpGNAqNMAr1w2UjkG5YAGE3KTV72PymunSMXBP7RswoGkP6Rh0FhZABMSPAuZt+1Y6BkY1fxi3VmsjHYNOwwKIgJPZWbhj7iCsP7hFOgreaD8UTS6qLR2DFBZARBzIOIIus5/BwQzZOwNFUwpjRscxqFi0nGgOysECiJD/HNyC2+YMsI4IJFUuXgEf3vgsChdIFc1BLIDImb/9Ozz21fPSMdC8Qn38o+1gJCFJOkqksQAi6G9rPsD/rX5POgburNkeg6/8o3SMSGMBRNSTX03AZ9uWSsfA8Kv/jNtrXG/930lJPBrwGgsgorJi2dZMwXUHN0tHwdS2Q/Dnel3Q8fJrpKNEDgsgwg5mpKHzJ09bawckFUkphClt+qNWqcqiOaKIBRBxPx/ejts+HWitIqToYQEQvtix3HqOAEUPC4AsU9bOwIurpknHII+xAOi/+iyeiFlbTOkY5CEWAP1XVizbeu/g2gMbpaOQR1gAdIbDmUfReVZf630DFH4sAPqNjYd3oNucAbwzEAEsAMrVlzu+x8MLx0rHIJexAOicXls3E+O+f1M6BrmIBUDnNeCbyZi5+WvpGOQSFgCdV1YsG3/4bChW7/9FOgq5gAVAF3TkxDHrPQN70g9KRyGHsQAoIZuO/IpbP+2PzOwT0lHIQSwAStjXO1fhwQWjpWOQg1gAlCevr/8UY1a8IR2DHMICoDwbuORv+GjTIukY5AAWAOVZdiwbd3/+F6zct0E6CtnEAqB8STuRji6z+mJX+n7pKGQDC4DybUvaLnSd3Q8ZWbwzEFQsALLlm11r8MCCUdIxKJ9YAGTbmz/NwejlU6VjUD6wAMgRg5a8jA82LpSOQXnEAiBHxBDDPZ8Pw4q966WjUB6wAMgxx04et95AvPPYPukolCAWADlqW9pu3DK7H45nZUpHoQSwAMhxS3evxf0LRkrHoASwAMgVb//0GYZ/+5p0DLqAyBfAyewsT8c7ejLd0/Ek/WXZq5j28zzpGOfE0xQWAA5kHPF0vM1Hdno6nqQYYvjT/JH4bs866Si52n9c9qWofhD5AthwaJun462K2AKaU3cGfvXhnYEfD2ySjiAu8gWwZPcaz8Y6lJmGb33629BNO47utRYOpZ/MkI5yhkW/rpSOIC7yBfDxJu+eePvuz/M9v+bgF/Hi6zF/uHSM/4qfnnDmIgvAOj/16om3k1a/78k4fvXezwsweOkU6RiWjzZ+FanrMecS+QKIG/HdP10fI/7b//u9P7k+jt+N/O6fmLxmumiGrFg2hiz7u2gGv2ABAJi2YZ71Kiy3HMg4gie/nuDa9oPmkS/H48VV08TGH7X8X5G7GHsuLAB1Pnjf/L/iYEaa49vOjmWjx7zh1oUwyhH/vOOFqH/5nOcvIJ21xcSwZa96OqafsQCUTUd+RZfZzl+pjn/J+Wqt3MVPBbTpPbFm/0ZPxpuzdQnumDPIOgWgHCyA0yz6dSVumPmkI5ODjmdl4g+fD8XLaz90JFtYfbdnHZq8ex+eXvwS9h0/5No4L6x8B51nPW3NS6D/jwVwlngJXDGtBxbuWJHvbSzb/SOufv8Baz48XVj8NGD8yrdR9Y1ueGrxRGw/usexbcfP9a+f8ai13ajegj2fpFgsZm8Dk1s0jH/OjiXyiSQk4Y4abTHoyvvQqFzNhH4m/mUbu+JNvL3hM+vcn/InOSkZ11/aFHfXugGdqmioUKRsnn4+/tkv2L4cxprp+HDjl2H+t2gU67X4BzsbcKIA4ntHqO9vNbmoNm6q0gLXVGiA2qUro2RqMWTHYtbMvvUHt1gPxpy9xeRtPpfUKV0FrSs1Rt3SVVGrdGVcVqw8SqUWQ/GCRXE8K8O6brM5bSd+PLAZS3atwdytS7H3eCReZFor1muxrdsZThRAcQCHrV+aROSV+I5bMtZrsa1bV/avAehmPMALtrdDRHnxgtr3bHHqIuAzACY6tC0iOr+Jap+zzf4pQNJpR/6GpgF4EUAz+9GI6CzLADwB3TRP/YHd/dfZ24A5wZoD+BMArrQgcsZOtU81P33nd4KzRwCnM7QSAAYCeApAqq1BiKIpE8DzAEZBN3OdnWZ7/3WtAE4xtOoAxgPoamsgomj5EEAf6OZ516r7vwBOMbR2ACYAaGBrQKJwW63O8+cn8pf9dQ3gfHRzHoAmAB4BwJfKE51pv9o3miS68zvBuyOA0xlaGQDD4rUAoICtAETBlhXfIwAMhW4eyOsPB+cUIDeGVk9NIupgKwRRMM0F0Bu6uTa/Gwh2AZxiaF3UhcLEVt0QBdsGdYHvI7sbCs41gPPJ+SDqq9lN3r6pg8g7R9R3vL4TO78T/HEEcDpDqwBgJID7ucCIQiK+k70GYBB0c5ejGw7FKUBuDK2pmvPc0p0BiDzxNYDHoZvL3dh4OE4BcpPzgbUGcBeArdJxiPJoq/rutnZr53eCf48ATmdoRQD0U+dPRdwfkCjf0gGMBTAGuun6q6DDewqQG0OrrD7cO70blChh71i/pHTTsyPWaBXAKYbWSi07bur94ES/sVxN3/3K64HDew3gfHI+6GYAHgCwWzoORdZu9R1sJrHzOyGYRwCnM7SSAAYDeBJAQdkwFBEn1AzWkdDNw5JBonkKkBtDq6nWTt8sHYVC7WPrGRe66YuXC7IAzmZoHVQ715OOQqGyVs3bnysd5HTRvAZwPjn/QI2tyRdAnldXEZ3lgPouNfbbzu+E8B0BnM7QygEYDuAhLjumPMoC8DKAIdDNfdJhzoWnAIkwtIbqtKCddBQKhHnqcN/Wa7e8wALIC0PrqpYdV5eOQr70i1qmG5hXOvMaQF7k/MPWAzAAgO23qlBopKnvRL0g7fxOiNYRwOkMrSKAZwH04LLjyIp/+acC6A/dDOR7LHgKYJehNVPTijXpKOQpU03fXSYdxA6eAtiV8wVoCeBuANul45Drtqt/65ZB3/mdwCOA0xlaMbXsuC+AwtJxyFHHAYxTy3SPSodxCk8B3GBoVa0vCtBdOgo5YppV7Lq5STqI01gAbjK0a9VjyRpLR6F8Wakex/WldBC38BqAm3K+OE3VTMI90nEoYXvUv1nTMO/8TuARQKIMrZQ1LRR4jMuOfesEgJes6d+6eUg6jBd4CuA1Q6utphV3ko5CZ5ilpu+ulw7iJRaAFEPrqJ4/UEc6SsStU+vzZ0sHkcBrAFJyvnCNrN86wEHpOBF0UH32jaK68zuBRwBOMLSL1bLjnixV12UDmKKW6Ub+wixPAfzE0Bqp24ZtpKOE1EJ1W2+VdBC/YAH4kaHdBuA5AFWlo4TEJgBPQzfflw7iN7wG4Ec5X9S61ssggdBMOxVwVH2Gdbnzu4NHAG4ztEpq2fG90lEC5nW1THeHdBA/4ylAUBjaNQAmAGguHcXnlljveNDNb6SDBAFPAYIi5wutAbgPAH+r/dYO9dlo3Pm9wyMACYZWHMBAawILUEg6jrAMNaFqFHSTj2nLI54CBJmhVVN3C7pJRxEyXV3d3ygdJKhYAGFgaNep+QMNpaN45Ad1P/8L6SBBx2sAYZCzIzQB0AvAXuk4Ltqr/jc24c7vDzwC8BtDKwNgKIBHAKRIx3HISQCTAAyDbvJ1bQ7iKUBYGVpddXHsRukoNn2qVuv9KB0kjFgAYWdoN6kiqC0dJY/Wqx3/E+kgYcZrAGGXswM1tK6WA4el4yTgsMrakDu///EIIEgMrTyAEQAe9OHbjOJfpFcADIZu7pYOExU8BYgiQ7tC3TZsLR1FWaRu630vHSRqWABRZmi/V+8vqCKUYDOAZ6Cb04TGjzwWQNQZWhH1JqN+AIp6NOoxVTzjoJvpHo1JuWABUA5Du0ztlH9weaS31Ft2trk8DiWABUBnMrQW6m3HVzm85W/V23QXO7xdsoG3AelMOTtocwB/ArDLgS3uUttqzp0/fHgEEGaGVkI9Uqs3gNQ8/nSmegHKSOjmEZcSkk08BaALM7TqajbhLQn+xAw1i+8Xl5ORTSwASpyhtVe/1Ruc42+sVq/X+tzjZJRPLADKG0NLAfCAentuPfWnawG8DOBV6OZJ4YSUB3b33/8XAAD//7NTZz+b5+k2AAAAAElFTkSuQmCC;" vertex="1" parent="1">
          <mxGeometry x="104" y="162" width="49" height="49" as="geometry" />
        </mxCell>
        <mxCell id="ypDoyG1YeloCChP4dBAC-11" value="" style="endArrow=classic;html=1;rounded=0;exitX=1;exitY=0.5;exitDx=0;exitDy=0;entryX=0;entryY=0.5;entryDx=0;entryDy=0;" edge="1" parent="1" source="ypDoyG1YeloCChP4dBAC-3" target="ypDoyG1YeloCChP4dBAC-10">
          <mxGeometry width="50" height="50" relative="1" as="geometry">
            <mxPoint x="78" y="255" as="sourcePoint" />
            <mxPoint x="128" y="205" as="targetPoint" />
          </mxGeometry>
        </mxCell>
        <mxCell id="ypDoyG1YeloCChP4dBAC-13" value="" style="endArrow=classic;html=1;rounded=0;exitX=1;exitY=0.5;exitDx=0;exitDy=0;entryX=0;entryY=0.5;entryDx=0;entryDy=0;fillColor=#fa6800;strokeColor=#C73500;" edge="1" parent="1" source="ypDoyG1YeloCChP4dBAC-10" target="l4apO_FyRR7dK6Zw6bee-7">
          <mxGeometry width="50" height="50" relative="1" as="geometry">
            <mxPoint x="250" y="216" as="sourcePoint" />
            <mxPoint x="300" y="166" as="targetPoint" />
            <Array as="points">
              <mxPoint x="215" y="187" />
              <mxPoint x="215" y="96" />
            </Array>
          </mxGeometry>
        </mxCell>
        <mxCell id="ypDoyG1YeloCChP4dBAC-14" value="" style="endArrow=classic;html=1;rounded=0;entryX=0;entryY=0.5;entryDx=0;entryDy=0;fillColor=#fa6800;strokeColor=#C73500;" edge="1" parent="1" target="l4apO_FyRR7dK6Zw6bee-34">
          <mxGeometry width="50" height="50" relative="1" as="geometry">
            <mxPoint x="215" y="140" as="sourcePoint" />
            <mxPoint x="433" y="174" as="targetPoint" />
          </mxGeometry>
        </mxCell>
        <mxCell id="ypDoyG1YeloCChP4dBAC-15" value="" style="endArrow=classic;html=1;rounded=0;entryX=0;entryY=0.5;entryDx=0;entryDy=0;fillColor=#fa6800;strokeColor=#C73500;" edge="1" parent="1" target="l4apO_FyRR7dK6Zw6bee-16">
          <mxGeometry width="50" height="50" relative="1" as="geometry">
            <mxPoint x="215" y="187" as="sourcePoint" />
            <mxPoint x="336" y="253" as="targetPoint" />
            <Array as="points">
              <mxPoint x="215" y="425" />
            </Array>
          </mxGeometry>
        </mxCell>
        <mxCell id="ypDoyG1YeloCChP4dBAC-16" value="" style="endArrow=classic;html=1;rounded=0;entryX=0;entryY=0.5;entryDx=0;entryDy=0;fillColor=#fa6800;strokeColor=#C73500;" edge="1" parent="1" target="l4apO_FyRR7dK6Zw6bee-27">
          <mxGeometry width="50" height="50" relative="1" as="geometry">
            <mxPoint x="215" y="374" as="sourcePoint" />
            <mxPoint x="369" y="338" as="targetPoint" />
          </mxGeometry>
        </mxCell>
        <mxCell id="ypDoyG1YeloCChP4dBAC-18" value="" style="endArrow=classic;html=1;rounded=0;entryX=0;entryY=0.5;entryDx=0;entryDy=0;fillColor=#fa6800;strokeColor=#C73500;" edge="1" parent="1">
          <mxGeometry width="50" height="50" relative="1" as="geometry">
            <mxPoint x="215" y="313" as="sourcePoint" />
            <mxPoint x="693" y="313" as="targetPoint" />
          </mxGeometry>
        </mxCell>
        <mxCell id="ypDoyG1YeloCChP4dBAC-19" value="" style="endArrow=classic;html=1;rounded=0;entryX=0;entryY=0.5;entryDx=0;entryDy=0;fillColor=#fa6800;strokeColor=#C73500;" edge="1" parent="1" target="l4apO_FyRR7dK6Zw6bee-33">
          <mxGeometry width="50" height="50" relative="1" as="geometry">
            <mxPoint x="215" y="235" as="sourcePoint" />
            <mxPoint x="716" y="235.25" as="targetPoint" />
          </mxGeometry>
        </mxCell>
      </root>
    </mxGraphModel>
  </diagram>
</mxfile>
